<?xml version="1.0" encoding="UTF-8" standalone="no"?>
<svg xmlns="http://www.w3.org/2000/svg" version="1.0">
  <g transform="translate(-232.86314,-429.24475)">
    <!--
    <path
       style="fill:none;fill-opacity:0.75;fill-rule:evenodd;stroke:#0000ff;stroke-width:1px;stroke-linecap:butt;stroke-linejoin:miter;stroke-opacity:1"
       d="
       M 260,627
       C 269,624 272,612 278.59667,574.28755 
       C 285,539 285,515 290.9579,482.19587 
       C 297,449 302,441 303.46489,441.18272 
       C 305,441 305,450 309.16866,463.07059 
       C 312,478 315,478 316.23973,483.51087 
       C 318,499 321,505 322.58382,515.24139 
       C 335,587 337,589 346.09153,608.30169 
       C 347,610 352,614 352.74047,617.57163 
       C 355,622 369,629 380.7722,629.81973 
       L 516,630"/>
    <path
       style="fill:none;fill-opacity:0.75;fill-rule:evenodd;stroke:#00ff00;stroke-width:1px;stroke-linecap:butt;stroke-linejoin:miter;stroke-opacity:1"
       d="
       M 260,630 
       C 286,628 287,623 295.99667,619.26221 
       C 308,614 316,609 319.61292,600.78024 
       C 326,589 336,574.8142 337.91649,570.51238 
       C 345,556 351,522 352.57664,512.23476 
       C 358,483 365,449 372.2022,442.83381 
       C 374,442 376,440.73747 378.80935,440.51238 
       C 387,440 388,448 392.90117,458.6004 
       C 398,472 400,473 402.02998,479.70881 
       C 417,534 419,550 424.14112,567.06402 
       C 428,580 433,595 438.79155,605.44155 
       C 445,616 452,623 459.06685,625.42805 
       C 470,629 471,630 516.66572,629.96768"/>
    <path
       style="fill:none;fill-opacity:0.75;fill-rule:evenodd;stroke:#ff0000;stroke-width:1px;stroke-linecap:butt;stroke-linejoin:miter;stroke-opacity:1"
       d="
       M 285,626 
       C 324,620 318,614 328.01755,605.72247 
       C 348,590 353,538 362.7004,501.83521 
       C 370,473 374,471 378.68762,461.98474 
       C 384,453 388,447 389.7941,447.05425 
       C 391,447 394,446 396.54411,444.6427 
       C 399,443 399,442 401.2756,441.60486 
       C 403,441 405,442 406.35805,443.32055 
       C 408,445 408,447 409.54622,446.90816 
       C 416,448 429,482 438.39871,518.18705 
       C 455,567 456,628 504.38327,629.70245"/>
       -->
    <path
       style="fill:none;fill-opacity:0.75;fill-rule:evenodd;stroke:#0000ff;stroke-width:1px;stroke-linecap:butt;stroke-linejoin:miter;stroke-opacity:0.5"
       d="
       M 260,627
       L 269,620
       L 272,612 
       L 284,539
       L 285,515
       L 299,449
       L 302,441
       L 303,441
       L 305,450
       L 312,473
       L 315,478
       L 318,499
       L 321,505
       L 337,589
       L 347,610
       L 352,614
       L 355,620
       L 369,628
       L 374,629
       L 380,630
       L 516,630"/>
    <path
       style="fill:none;fill-opacity:0.75;fill-rule:evenodd;stroke:#00ff00;stroke-width:1px;stroke-linecap:butt;stroke-linejoin:miter;stroke-opacity:0.5"
       d="
       M 260,630 
       L 275,627
       L 282,625
       L 287,623
       L 308,614
       L 315,609
       L 326,589
       L 336,574
       L 344,556
       L 351,522
       L 358,483
       L 368,449
       L 374,442
       L 376,441
       L 385,442
       L 387,444
       L 388,448
       L 398,472
       L 400,473
       L 417,534
       L 419,550
       L 428,580
       L 433,595
       L 445,616
       L 452,623
       L 470,629
       L 471,630
       L 516,630"/>
    <path
       style="fill:none;fill-opacity:0.75;fill-rule:evenodd;stroke:#ff0000;stroke-width:1px;stroke-linecap:butt;stroke-linejoin:miter;stroke-opacity:0.5"
       d="
       M 260,630
       L 285,627
       L 305,622
       L 318,616
       L 334,600
       L 342,585
       L 347,570
       L 355,538
       L 363,500 
       L 369,480 
       L 374,471
       L 384,453
       L 388,447
       L 391,447
       L 394,446
       L 399,442
       L 403,441
       L 405,442
       L 408,445
       L 409,447
       L 412,448
       L 417,455 
       L 428,482 
       L 439,520
       L 452,567
       L 461,595
       L 465,605
       L 473,615
       L 482,623
       L 490,627
       L 500,630
       L 516,630"/>
    <path
       style="opacity:1;fill:none;fill-opacity:0.75;fill-rule:evenodd;stroke:#000000;stroke-width:0.99563217px;stroke-linecap:butt;stroke-linejoin:miter;stroke-opacity:1"
       d="M 253.46788,431.84949 L 253.46788,630.85389 L 517.47224,630.85389 L 517.47224,431.84949 L 253.46788,431.84949 z "
       id="path2221" />
  </g>
</svg>
