<?xml version="1.0" encoding="UTF-8"?>

<svg
   xmlns:dc="http://purl.org/dc/elements/1.1/"
   xmlns:cc="http://creativecommons.org/ns#"
   xmlns:rdf="http://www.w3.org/1999/02/22-rdf-syntax-ns#"
   xmlns:svg="http://www.w3.org/2000/svg"
   xmlns="http://www.w3.org/2000/svg"
   width="1010"
   height="500"
   viewBox="0 0 1000 500">

    <g transform="matrix(1, 0, 0, -1, 10, 450)">
    <path
    d="
    m 0,0
    l 5.52,-0.029
    l 5.64,0.34
    l 5.54,0.939
    l 5.54,0.11
    l 5.64,0.731
    l 5.53,3.029
    l 5.54,7.83
    l 5.64,14.111
    l 5.54,17.019
    l 5.53,10.24
    l 5.64,3.76
    l 5.54,3.66
    l 5.54,2.29
    l 5.64,1.47
    l 5.53,11.9
    l 5.54,21.941
    l 5.64,18.279
    l 5.54,11.91
    l 5.53,9.92
    l 5.54,10.66
    l 5.64,7.201
    l 5.54,2.089
    l 5.53,-1.98
    l 5.64,-6.16
    l 5.54,-5.329
    l 5.54,4.179
    l 5.64,10.761
    l 5.53,11.379
    l 5.54,13.48
    l 5.64,13.371
    l 5.54,11.589
    l 5.53,8.67
    l 5.64,6.58
    l 5.54,6.06
    l 5.54,3.55
    l 5.64,-1.77
    l 5.53,-3.239
    l 5.54,1.25
    l 5.53,2.819
    l 5.65,1.88
    l 5.53,-0.94
    l 5.54,-6.06
    l 5.64,-0.199
    l 5.53,8.98
    l 5.54,7.83
    l 5.64,1.049
    l 5.54,0.21
    l 5.53,2.92
    l 5.64,1.051
    l 5.54,-1.051
    l 5.54,-4.59
    l 5.64,-3.66
    l 5.53,3.97
    l 5.54,5.541
    l 5.64,5.009
    l 5.54,2.821
    l 5.531,-0.73
    l 5.539,-3.141
    l 5.64,-0.2
    l 5.54,3.761
    l 5.531,1.25
    l 5.639,-1.781
    l 5.54,-1.349
    l 5.54,2.819
    l 5.64,4.59
    l 5.53,-0.52
    l 5.54,-2.719
    l 5.64,2.089
    l 5.54,3.76
    l 5.53,1.68
    l 5.64,1.141
    l 5.54,-2.5
    l 5.54,-6.581
    l 5.641,-1.879
    l 5.529,4.069
    l 5.54,1.67
    l 5.54,1.781
    l 5.641,-1.261
    l 5.529,-4.699
    l 5.54,-3.761
    l 5.641,1.36
    l 5.54,3.341
    l 5.529,-0.94
    l 5.641,-4.591
    l 5.54,-1.67
    l 5.54,3.02
    l 5.639,4.5
    l 5.531,0.83
    l 5.54,-1.56
    l 5.639,-1.259
    l 5.54,0.21
    l 5.531,-1.151
    l 5.639,-3.03
    l 5.54,1.78
    l 5.54,5.53
    l 5.531,4.391
    l 5.639,2.609
    l 5.54,0.661
    l 5.531,-2.431
    l 5.649,-4.81
    l 5.53,-8.15
    l 5.54,-10.02
    l 5.64,-5.959
    l 5.54,3.239
    l 5.53,2.19
    l 5.64,-2.5
    l 5.54,-0.94
    l 5.53,5.531
    l 5.651,5.959
    l 5.529,-1.05
    l 5.54,-11.8
    l 5.641,-16.4
    l 5.529,-4.069
    l 5.54,6.159
    l 5.54,2.92
    l 5.641,-3.03
    l 5.529,-9.29
    l 5.591,-26.22"
    style="fill:none;stroke:#000000;stroke-width:1;"/>
    </g>
</svg>
