<?xml version="1.0" encoding="UTF-8" standalone="no"?>
<!DOCTYPE svg PUBLIC "-//W3C//DTD SVG 1.1//EN" "http://www.w3.org/Graphics/SVG/1.1/DTD/svg11.dtd">
<svg width="100%" height="100%" viewBox="0 0 2224 1668" version="1.1" xmlns="http://www.w3.org/2000/svg" xmlns:xlink="http://www.w3.org/1999/xlink" xml:space="preserve" xmlns:serif="http://www.serif.com/" style="fill-rule:evenodd;clip-rule:evenodd;stroke-linecap:round;stroke-linejoin:round;stroke-miterlimit:1.5;">
<!--
    <g id="Europe1">
        <path d="
        M237.355,583.234
        C228.048,579.148 311.072,625.92 354.563,639.209
        C376.238,645.832 411.671,648.428 435.473,629.152
        C480.048,593.053 547.205,506.699 616.866,480.131
        C682.649,455.042 696.66,469.337 774.838,455.121
        C868.438,438.101 975.619,426.787 1041.9,456.474
        C1109.87,486.921 1147.54,493.144 1215.19,496.197
        C1225.13,496.646 1295.12,496.882 1305.83,498.892
        C1368.17,510.59 1350.64,510.45 1385.5,509.1
        C1431.14,507.332 1443.4,478.868 1457.41,468.337
        C1487.58,445.656 1494.56,433.521 1525.72,419.172
        C1614.44,378.317 1641.33,390.228 1700.1,392.739
        C1796.41,396.855 2033.54,420.341 2057.28,420.341
        C2065.75,420.341 2189.8,426.862 2186.25,426.862"
        style="fill:none;stroke:red;stroke-width:3px;"/>
        <path d="
        M 238, 584
        L 311, 622
        L 340, 634
        L 376, 644
        L 390, 644
        L 411, 641
        L 440, 627
        L 480, 588
        L 547, 524
        L 590, 493
        L 622, 479
        L 682, 464
        L 705, 462
        L 755, 458
        L 868, 441
        L 900, 439
        L 975, 440
        L 1000, 443
        L 1050, 460
        L 1109, 480
        L 1147, 490
        L 1225, 496
        L 1295, 498
        L 1368, 510
        L 1400, 508
        L 1431, 495
        L 1443, 482
        L 1487, 445
        L 1494, 438
        L 1550, 408
        L 1614, 390
        L 1641, 390
        L 1796, 398
        L 2033, 418
        L 2065, 420
        L 2184, 426"
        style="fill:none;stroke:black;stroke-width:1px;"/>
    </g>
    <g id="Europe2">
        <path d="
        M236.505,654.961
        C255.059,669.539 294.329,688.849 307.649,693.289
        C352.848,708.355 377.371,718.891 424.484,695.335
        C437.423,688.865 453.989,667.45 464.012,656.646
        C529.98,585.538 523.156,451.39 735.226,402.576
        C799.747,387.725 945.723,364.726 999.978,378.166
        C1040.29,388.151 1102.97,426.245 1138.64,440.713
        C1166.58,452.046 1230.94,450.149 1291.8,449.238
        C1332.61,448.627 1376.8,451.488 1388.87,447.784
        C1431.96,434.56 1458.77,388.504 1472.33,368.079
        C1475.72,362.973 1547.1,280.607 1592.79,272.243
        C1610.02,269.09 1653.46,254.906 1729.45,254.841
        C1841.49,254.746 2074.4,275.217 2108.22,275.217
        C2121.95,275.217 2181.36,279.467 2180.64,279.467" 
        style="fill:none;stroke:red;stroke-width:3px;"/>
        <path d="
        M 238, 655
        L 255, 669
        L 294, 688
        L 352, 707
        L 377, 710
        L 405, 705
        L 437, 686
        L 453, 667
        L 490, 620
        L 529, 548
        L 560, 500
        L 600, 462
        L 650, 432
        L 700, 412
        L 799, 390
        L 945, 374
        L 1000, 378
        L 1040, 392
        L 1102, 424
        L 1140, 441
        L 1166, 448
        L 1342, 450
        L 1386, 449
        L 1405, 442
        L 1431, 422
        L 1458, 390
        L 1475, 364
        L 1510, 327
        L 1547, 295
        L 1580, 276
        L 1610, 269
        L 1653, 260
        L 1741, 256
        L 1841, 259
        L 2074, 275
        L 2121, 276
        L 2181, 279"
        style="fill:none;stroke:black;stroke-width:1px;"/>
    </g>
    -->
    <g id="Europe3">
        <path d="
        M236.505,749.391
        C243.56,751.297 251.242,756.377 257.83,759.28
        C287.721,772.451 299.99,777.553 331.139,787.035
        C351.104,793.113 373.468,796.686 394.465,796.558
        C450.388,796.218 481.771,749.442 556.646,632.394
        C566.74,616.614 579.608,598.987 595.772,588.324
        C652.256,551.066 720.47,545.705 785.583,536.242
        C806.018,533.272 826.176,528.563 846.613,525.614
        C883.642,520.271 1005.04,517.476 1036.71,537.545
        C1067.98,557.354 1135.16,578.411 1201.71,579.393
        C1233.88,579.868 1342.1,593.17 1386.65,582.124
        C1431.97,570.889 1475.66,515.595 1488.27,505.513
        C1515.95,483.385 1561.54,453.204 1598.33,444.312
        C1643.26,433.451 1707.89,442.222 1743.78,441.537
        C1756.82,441.288 1950.34,455.734 1987.16,457.215
        C2005.79,457.965 2180.64,466.243 2180.64,468.55" 
        style="fill:none;stroke:red;stroke-width:3px;"/>
        <path d="
        M 236, 749
        L 243, 751
        L 251, 756
        L 287, 772
        L 299, 777
        L 351, 793
        L 373, 796
        L 450, 796
        L 481, 749
        L 566, 616
        L 579, 598
        L 652, 551
        L 720, 545
        L 806, 533
        L 826, 528
        L 883, 520
        L 1005, 517
        L 1067, 557
        L 1135, 578
        L 1233, 579
        L 1342, 593
        L 1431, 570
        L 1475, 515
        L 1515, 483
        L 1561, 453
        L 1643, 433
        L 1707, 442
        L 1756, 441
        L 1950, 455
        L 2005, 457
        L 2180, 466"
        style="fill:none;stroke:black;stroke-width:1px;"/>
    </g>
    <!--
    <g id="EastAsia1">
        <path d="
        M236.505,819.493
        C252.508,818.111 258.726,817.058 272.583,818.92
        C289.676,821.215 307.364,824.252 332.384,830.484
        C352.635,835.528 395.418,829.313 414.742,821.099
        C486.551,790.575 468.356,777.647 555.518,679.941
        C567.987,665.963 625.44,623.785 643.88,617.873
        C716.965,594.441 712.803,603.138 784.634,587.781
        C819.756,580.272 870.25,556.727 890.688,553.778
        C927.717,548.435 988.63,540.174 1036.44,552.045
        C1072.36,560.965 1142.03,589.505 1208.58,590.487
        C1240.75,590.962 1342.1,593.17 1386.65,582.124
        C1431.97,570.889 1475.66,515.595 1488.27,505.513
        C1515.95,483.385 1561.54,453.204 1598.33,444.312
        C1643.26,433.451 1692.05,422.192 1750,425.712
        C1820.83,430.014 1930.85,434.751 2006.02,436.014
        C2024.66,436.327 2129.04,435.945 2186.33,438.25" 
        style="fill:none;stroke:red;stroke-width:3px;"/>
        <path d="
        M 236, 819
        L 252, 818
        L 258, 817
        L 289, 821
        L 307, 824
        L 352, 835
        L 395, 829
        L 486, 790
        L 468, 777
        L 567, 665
        L 625, 623
        L 716, 594
        L 712, 603
        L 819, 580
        L 870, 556
        L 927, 548
        L 988, 540
        L 1072, 560
        L 1142, 589
        L 1240, 590
        L 1342, 593
        L 1431, 570
        L 1475, 515
        L 1515, 483
        L 1561, 453
        L 1643, 433
        L 1692, 422
        L 1820, 430
        L 1930, 434
        L 2024, 436
        L 2129, 435"
        style="fill:none;stroke:black;stroke-width:1px;"/>
    </g>
    <g id="EastAsia2">
        <path d="
        M231.169,848.478
        C247.173,847.096 260.974,839.593 273.788,834
        C306.924,819.538 306.884,819.599 328.085,804.925
        C360.806,782.278 387.6,796.888 418.877,772.188
        C495.71,711.513 473.291,726.961 548.945,620.095
        C569.023,591.734 605.861,561.661 630.792,546.23
        C676.838,517.73 778.708,493.029 863.979,470.595
        C917.501,456.513 985.923,448.324 1017.85,455.344
        C1054.39,463.377 1101.91,490.802 1150.86,496.359
        C1196.91,501.587 1254.76,494.529 1331.72,491.478
        C1363.87,490.204 1397.69,494.021 1429.45,460.884
        C1476.11,412.212 1530.05,368.386 1552.7,358.487
        C1585.17,344.296 1648.27,334.157 1697.2,333.384
        C1822.43,331.406 2074.34,362.734 2184.95,376.655" 
        style="fill:none;stroke:red;stroke-width:3px;"/>
        <path d="
        M 231, 848
        L 247, 847
        L 260, 839
        L 306, 819
        L 306, 819
        L 360, 782
        L 387, 796
        L 495, 711
        L 473, 726
        L 569, 591
        L 605, 561
        L 676, 517
        L 778, 493
        L 917, 456
        L 985, 448
        L 1054, 463
        L 1101, 490
        L 1196, 501
        L 1254, 494
        L 1363, 490
        L 1397, 494
        L 1476, 412
        L 1530, 368
        L 1585, 344
        L 1648, 334
        L 1822, 331
        L 2074, 362"
        style="fill:none;stroke:black;stroke-width:1px;"/>
    </g>
    <g id="EastAsia3">
        <path d="
        M236.634,1203.33
        C289.73,1154.07 283.751,1150.36 323.026,1123.8
        C403.691,1069.25 448.536,1051.82 504.702,988.266
        C586.502,895.711 666.878,866.711 723.924,848.409
        C831.56,813.877 906.788,782.707 1006.46,777.706
        C1095.26,773.25 1247.1,764.234 1344.79,746.225
        C1453.86,726.119 1451.95,692.161 1515.24,654.877
        C1572.65,621.056 1627.97,609.267 1675.21,605.734
        C1712.52,602.943 2065.59,564.394 2177.78,565.979" 
        style="fill:none;stroke:red;stroke-width:3px;"/>
        <path d="
        M 236, 1203
        L 289, 1154
        L 283, 1150
        L 403, 1069
        L 448, 1051
        L 586, 895
        L 666, 866
        L 831, 813
        L 906, 782
        L 1095, 773
        L 1247, 764
        L 1453, 726
        L 1451, 692
        L 1572, 621
        L 1627, 609
        L 1712, 602
        L 2065, 564"
        style="fill:none;stroke:black;stroke-width:1px;"/>
    </g>
    <g id="SouthAsia1">
        <path d="
        M238.901,914.602
        C364.823,891.473 401.955,888.976 467.256,834
        C537.712,774.683 513.989,761.63 619.27,683.786
        C666.588,648.799 723.421,643.779 794.01,623.464
        C844.439,608.951 921.643,584.512 941.922,580.616
        C1029.31,563.83 1118.06,576.533 1184.6,577.516
        C1216.77,577.991 1317.46,567.701 1368.18,552.775
        C1431.11,534.255 1447.32,515.3 1503.99,463.247
        C1530.09,439.275 1551.59,427.772 1611.59,406.838
        C1696.56,377.196 1822.15,370.787 1880.09,367.27
        C1979.58,361.23 2068.21,346.612 2181.51,348.703" 
        style="fill:none;stroke:red;stroke-width:3px;"/>
        <path d="
        M 238, 914
        L 364, 891
        L 401, 888
        L 537, 774
        L 513, 761
        L 666, 648
        L 723, 643
        L 844, 608
        L 921, 584
        L 1029, 563
        L 1118, 576
        L 1216, 577
        L 1317, 567
        L 1431, 534
        L 1447, 515
        L 1530, 439
        L 1551, 427
        L 1696, 377
        L 1822, 370
        L 1979, 361
        L 2068, 346"
        style="fill:none;stroke:black;stroke-width:1px;"/>
    </g>
    <g id="SouthAsia2">
        <path d="
        M236.188,1006.26
        C328.672,976.878 396.129,996.398 461.375,945.901
        C534.211,889.531 507.915,885.822 616.71,812.969
        C669.887,777.361 808.52,754.757 880.273,739.038
        C1079.69,695.35 1199.8,745.479 1356.03,698.839
        C1483.99,660.637 1440.34,655.176 1543.62,599.097
        C1627.91,553.331 1645.79,550.596 1772.83,544.131
        C1885.2,538.413 2039.53,528.057 2186.24,521.223" 
        style="fill:none;stroke:red;stroke-width:3px;"/>
        <path d="
        M 236, 1006
        L 328, 976
        L 396, 996
        L 534, 889
        L 507, 885
        L 669, 777
        L 808, 754
        L 1079, 695
        L 1199, 745
        L 1483, 660
        L 1440, 655
        L 1627, 553
        L 1645, 550
        L 1885, 538
        L 2039, 528"
        style="fill:none;stroke:black;stroke-width:1px;"/>
    </g>
    <g id="SouthAsia3">
        <path d="
        M235.744,1166.46
        C339.584,1175.53 406.042,1160.5 557.709,1079.92
        C639.043,1036.7 740.101,1022.49 876.567,979.552
        C937.614,960.345 1112.89,929.871 1239.45,915.013
        C1484.88,886.201 1468.54,792.685 1624.77,746.044
        C1752.73,707.842 1811.63,692.118 1889.31,677.661
        C1983.6,660.113 2033.06,640.952 2187.77,618.808" 
        style="fill:none;stroke:red;stroke-width:3px;"/>
        <path d="
        M 235, 1166
        L 339, 1175
        L 406, 1160
        L 639, 1036
        L 740, 1022
        L 937, 960
        L 1112, 929
        L 1484, 886
        L 1468, 792
        L 1752, 707
        L 1811, 692
        L 1983, 660
        L 2033, 640"
        style="fill:none;stroke:black;stroke-width:1px;"/>
    </g>
    <g id="Africa1">
        <path d="
        M237.588,1155.49
        C357.191,1140.94 423.195,1147.87 560.207,1070.27
        C640.349,1024.88 741.086,1014.66 876.567,979.552
        C938.519,963.499 1077.38,944.485 1205.49,932.076
        C1462.47,907.181 1476.62,817.063 1646.37,761.899
        C1773.37,720.625 1856.41,702.414 1933.36,684.513
        C2031.5,661.686 2030.96,655.293 2183,634.868" 
        style="fill:none;stroke:red;stroke-width:3px;"/>
        <path d="
        M 237, 1155
        L 357, 1140
        L 423, 1147
        L 640, 1024
        L 741, 1014
        L 938, 963
        L 1077, 944
        L 1462, 907
        L 1476, 817
        L 1773, 720
        L 1856, 702
        L 2031, 661
        L 2030, 655"
        style="fill:none;stroke:black;stroke-width:1px;"/>
    </g>
    <g id="Africa2">
        <path d="
        M236.793,1206.48
        C265.67,1222.73 457.315,1185.47 607.618,1116.83
        C675.701,1085.73 936.993,1033.79 969.51,1028.2
        C1081.14,1009.02 1169.9,1004.78 1293.07,973.356
        C1366.6,954.595 1385.82,959.654 1444.9,923.851
        C1514.76,881.512 1541.72,831.348 1664.1,795.321
        C1769.71,764.231 1866.44,730.625 1943.7,714.065
        C2013.75,699.049 2077.26,680.071 2183.39,660.607" 
        style="fill:none;stroke:red;stroke-width:3px;"/>
        <path d="
        M 236, 1206
        L 265, 1222
        L 457, 1185
        L 675, 1085
        L 936, 1033
        L 1081, 1009
        L 1169, 1004
        L 1366, 954
        L 1385, 959
        L 1514, 881
        L 1541, 831
        L 1769, 764
        L 1866, 730
        L 2013, 699
        L 2077, 680"
        style="fill:none;stroke:black;stroke-width:1px;"/>
    </g>
    <g id="Africa3">
        <path d="
        M237.375,1271.91
        C280.629,1245.42 337.157,1234.99 415.15,1218.13
        C483.284,1203.41 538.341,1174.81 617.833,1153.06
        C690.027,1133.31 938.151,1074.07 970.668,1068.48
        C1082.3,1049.29 1153.19,1048.7 1276.36,1017.27
        C1349.88,998.511 1401.24,995.168 1460.31,959.365
        C1530.17,917.026 1571.11,895.596 1693.49,859.57
        C1799.09,828.479 1939.68,778.041 2014.73,753.329
        C2102.91,724.292 2079.54,729.215 2186.2,698.839" 
        style="fill:none;stroke:red;stroke-width:3px;"/>
        <path d="
        M 237, 1271
        L 280, 1245
        L 337, 1234
        L 483, 1203
        L 538, 1174
        L 690, 1133
        L 938, 1074
        L 1082, 1049
        L 1153, 1048
        L 1349, 998
        L 1401, 995
        L 1530, 917
        L 1571, 895
        L 1799, 828
        L 1939, 778
        L 2102, 724
        L 2079, 729"
        style="fill:none;stroke:black;stroke-width:1px;"/>
    </g>
    -->
    <g id="Chart">
        <g id="Box" transform="matrix(1,0,0,1.01433,0,-17.8567)">
            <rect x="235.744" y="172.642" width="1947.25" height="1194.6" style="fill:rgb(235,235,235);fill-opacity:0;stroke:black;stroke-width:3.97px;"/>
        </g>
        <path d="M211.496,273.324C234.009,273.024 211.742,273.326 232.563,273.49" style="fill:none;stroke:black;stroke-width:4px;"/>
        <path d="M235.744,491.211C229.815,491.131 216.686,490.735 216.686,490.735" style="fill:none;stroke:black;stroke-width:4px;"/>
        <path d="M232.563,708.922C227.693,709.044 218.731,708.718 214.334,708.718" style="fill:none;stroke:black;stroke-width:4px;"/>
        <path d="M235.744,926.806C227.781,927.525 224.318,927.45 219.124,927.32" style="fill:none;stroke:black;stroke-width:4px;"/>
        <path d="M235.744,1144.23C235.775,1143.89 220.342,1144.41 216.686,1144.41" style="fill:none;stroke:black;stroke-width:4px;"/>
        <path d="M558.001,1371.25C557.528,1370.87 557.614,1388.47 558.31,1389.16" style="fill:none;stroke:black;stroke-width:4px;"/>
        <path d="M882.817,1370.08C883.355,1373.98 882.625,1378.47 883.559,1384.2" style="fill:none;stroke:black;stroke-width:4px;"/>
        <path d="M1206.57,1371.35C1206.47,1374.34 1206.85,1377.6 1206.75,1380.41" style="fill:none;stroke:black;stroke-width:4px;"/>
        <path d="M1531.54,1368.98C1531.58,1368.92 1531.68,1374.13 1531.68,1375.39" style="fill:none;stroke:black;stroke-width:4px;"/>
        <path d="M1856.57,1370.08C1856.68,1372.47 1856.51,1376.09 1856.57,1380.41" style="fill:none;stroke:black;stroke-width:4px;"/>
        <path d="M2181.35,1369.96C2181.93,1372.44 2181.52,1375.05 2181.49,1378.23" style="fill:none;stroke:black;stroke-width:4px;"/>
    </g>
</svg>
